<svg xmlns="http://www.w3.org/2000/svg" width="46" height="46" fill="none"><path stroke="#404145" stroke-miterlimit="10" stroke-width="1.5" d="M13.3 33.2a6.71 6.71 0 100-13.42 6.71 6.71 0 000 13.42z"/><path stroke="#404145" stroke-miterlimit="10" stroke-width="1.5" d="M3.71 25.69h-.58a1.54 1.54 0 00-1.54 1.54v2.17a1.54 1.54 0 001.54 1.54h1.68a9.58 9.58 0 018.89-14 9.65 9.65 0 019.17 9.23 9.46 9.46 0 01-1.09 4.8h1.68A1.538 1.538 0 0025 29.4v-2.17a1.54 1.54 0 00-1.54-1.54h-.58M3.2 44.38v-4.1a4.53 4.53 0 014.53-4.53h11.13a4.53 4.53 0 014.53 4.53v4.1M28.11 30.45h7.16v3.63a1 1 0 001.81.59l3.1-4.22h2.12a2.12 2.12 0 002.11-2.11V3.73a2.11 2.11 0 00-2.11-2.11H24.05a2.11 2.11 0 00-2.11 2.11v11.86"/><path fill="#A6EACA" stroke="#404145" stroke-miterlimit="10" stroke-width="1.5" d="M39.38 9.4l-7.01 2.01V7.73l7.01-2.01V9.4z"/><path stroke="#404145" stroke-miterlimit="10" stroke-width="1.5" d="M32.37 7.73v15.01"/><path fill="#A6EACA" stroke="#404145" stroke-miterlimit="10" stroke-width="1.5" d="M30.621 25.262c1.415-.738 2.111-2.202 1.554-3.27-.556-1.067-2.155-1.334-3.57-.596-1.415.739-2.111 2.203-1.554 3.27.557 1.067 2.155 1.334 3.57.596z"/></svg>