<svg xmlns="http://www.w3.org/2000/svg" width="46" height="46" fill="none"><path stroke="#404145" stroke-miterlimit="10" stroke-width="1.5" d="M11.76 32.05a6.71 6.71 0 100-13.42 6.71 6.71 0 000 13.42zM1.66 44.38v-4.1a4.53 4.53 0 014.53-4.53h11.14a4.53 4.53 0 014.52 4.53v4.1"/><path fill="#A6EACA" stroke="#404145" stroke-linejoin="round" stroke-width="1.5" d="M36.96 5.48L28.62 8V4.24l8.34-2.52v3.76z"/><path stroke="#404145" stroke-linejoin="round" stroke-width="1.5" d="M28.62 4.24v15.35M26.83 22.156c1.444-.754 2.153-2.25 1.584-3.342-.57-1.092-2.203-1.366-3.647-.613-1.445.754-2.154 2.25-1.584 3.342.57 1.092 2.202 1.366 3.647.613z"/><path stroke="#404145" stroke-miterlimit="10" stroke-width="1.5" d="M30.93 13.07c3.29 4.05 7 7.63 13.41 7.63M14.51 1.62c7 0 10.69 4.18 14.19 8.62M29.16 24.09c2.83 3 6.21 5.3 11.39 5.3M10.72 10.31c6.69 0 10.38 3.83 13.76 8.06"/></svg>