<svg xmlns="http://www.w3.org/2000/svg" width="46" height="46" fill="none"><path stroke="#404145" stroke-linejoin="round" stroke-width="1.5" d="M23 5.8L9.54 11.07V6.9L23 1.62V5.8zM9.55 6.9v17.04"/><path fill="#A6EACA" stroke="#404145" stroke-linejoin="round" stroke-width="1.5" d="M7.567 26.8c1.606-.838 2.395-2.502 1.761-3.716-.633-1.214-2.449-1.52-4.055-.682-1.606.838-2.394 2.502-1.76 3.716.633 1.215 2.448 1.52 4.054.682z"/><path stroke="#404145" stroke-linejoin="round" stroke-width="1.5" d="M23 2.32v17.04"/><path fill="#A6EACA" stroke="#404145" stroke-linejoin="round" stroke-width="1.5" d="M21.032 22.214c1.607-.838 2.395-2.502 1.762-3.716-.634-1.215-2.45-1.52-4.056-.682-1.606.838-2.394 2.502-1.76 3.716.633 1.214 2.448 1.52 4.054.682z"/><path stroke="#404145" stroke-miterlimit="10" stroke-width="1.5" d="M9.41 30.16v13.42a.8.8 0 00.8.8h30a.8.8 0 00.8-.8V11a.8.8 0 00-.8-.8H26.69M17.42 39.41h15.59M17.42 33.16h15.59M17.42 26.92h15.59"/></svg>